<?xml version="1.0" encoding="UTF-8"?>
<svg version="1.1" xmlns="http://www.w3.org/2000/svg" width="512" height="500">
<path d="M0 0 C0.9941391 -0.00367584 1.9882782 -0.00735168 3.01254272 -0.01113892 C17.07639019 -0.01942888 30.70666691 0.87472997 44.5625 3.3125 C45.30504028 3.44301758 46.04758057 3.57353516 46.81262207 3.70800781 C53.80734589 4.97044915 60.70291462 6.37432192 67.38110352 8.8581543 C69.52164384 9.59329218 71.65728121 10.05523436 73.875 10.5 C77.93373937 11.34966689 81.45615239 12.80631803 85.25 14.5 C86.60212447 14.95670252 87.95938674 15.39835897 89.3203125 15.828125 C94.54440101 17.54842011 99.57678752 19.63555339 104.625 21.8125 C105.54966064 22.21057861 106.47432129 22.60865723 107.42700195 23.01879883 C113.91059727 25.84348804 120.17092475 28.8749568 126.25 32.5 C127.07113281 32.97953125 127.89226562 33.4590625 128.73828125 33.953125 C146.34133647 44.35617474 146.34133647 44.35617474 151.25 48.5 C151.25 49.16 151.25 49.82 151.25 50.5 C151.79140625 50.56960937 152.3328125 50.63921875 152.890625 50.7109375 C156.23508191 51.82944792 158.33019801 53.83561021 161 56.125 C161.52859619 56.57504395 162.05719238 57.02508789 162.60180664 57.48876953 C166.29479304 60.64199016 169.95282156 63.83663291 173.5859375 67.05859375 C174.94931007 68.23954323 176.37374135 69.3496581 177.8125 70.4375 C180.67837246 72.862469 182.98884795 75.56709575 185.421875 78.41796875 C187.16946249 80.40827673 188.98426783 82.27126041 190.875 84.125 C193.89657781 87.1056535 196.66410915 90.13050586 199.25 93.5 C199.25 94.16 199.25 94.82 199.25 95.5 C199.91 95.5 200.57 95.5 201.25 95.5 C201.6521875 96.3971875 201.6521875 96.3971875 202.0625 97.3125 C203.10829356 99.49075507 203.10829356 99.49075507 204.62109375 100.85546875 C213.45751413 109.77665096 219.63862318 122.35066044 225.9375 133.125 C226.63311035 134.30630493 226.63311035 134.30630493 227.34277344 135.51147461 C230.35326063 140.70505268 232.9138054 145.9727257 235.25 151.5 C235.67023438 152.4590625 236.09046875 153.418125 236.5234375 154.40625 C240.16028032 162.96959622 243.34064828 171.66586448 246.25 180.5 C246.47187988 181.1717627 246.69375977 181.84352539 246.92236328 182.53564453 C248.61817433 187.80050143 249.97534837 193.11923377 251.25 198.5 C251.48138672 199.42522461 251.71277344 200.35044922 251.95117188 201.30371094 C260.51486765 236.96256883 260.3970263 280.00574296 251.25 315.5 C250.97172363 316.59441406 250.69344727 317.68882812 250.40673828 318.81640625 C247.41116038 330.2952594 243.87431809 341.56846325 239.25 352.5 C238.80140625 353.59699219 238.3528125 354.69398438 237.890625 355.82421875 C232.10154991 369.72111137 225.32670793 382.8029137 217.25 395.5 C216.72019531 396.44488281 216.19039063 397.38976562 215.64453125 398.36328125 C215.18433594 399.06839844 214.72414063 399.77351563 214.25 400.5 C213.59 400.5 212.93 400.5 212.25 400.5 C211.9921875 401.21542969 211.734375 401.93085938 211.46875 402.66796875 C210.17615235 405.67160111 208.6222291 408.13505372 206.75 410.8125 C206.1415625 411.69550781 205.533125 412.57851563 204.90625 413.48828125 C204.08640625 414.48408203 204.08640625 414.48408203 203.25 415.5 C202.59 415.5 201.93 415.5 201.25 415.5 C201.146875 416.139375 201.04375 416.77875 200.9375 417.4375 C200.710625 418.118125 200.48375 418.79875 200.25 419.5 C199.26 419.83 198.27 420.16 197.25 420.5 C196.96125 421.2425 196.6725 421.985 196.375 422.75 C194.96624346 426.19362709 192.93124324 427.94643501 190.25 430.5 C189.651875 431.28375 189.05375 432.0675 188.4375 432.875 C185.98023163 435.82372204 183.2763089 438.18756466 180.34765625 440.65625 C178.79253799 442.02313234 177.29948413 443.46131719 175.84375 444.93359375 C173.24470324 447.50524093 170.54178733 449.7798641 167.6875 452.0625 C165.0961716 454.13628153 162.58906557 456.15628059 160.2578125 458.51953125 C157.90213853 460.84312405 155.37731494 462.700044 152.6875 464.625 C151.73746094 465.30820312 150.78742188 465.99140625 149.80859375 466.6953125 C144.41450216 470.5 144.41450216 470.5 141.25 470.5 C140.92 471.49 140.59 472.48 140.25 473.5 C138.53515625 474.67578125 138.53515625 474.67578125 136.3125 475.8125 C132.9961134 477.55659656 129.7978292 479.38201683 126.625 481.375 C121.19221646 484.66862502 115.49963692 487.27414905 109.7265625 489.90234375 C107.10780624 491.10579466 104.55004491 492.34951347 102 493.6875 C97.99921138 495.73195586 93.80613389 497.18720111 89.5703125 498.66796875 C87.26665165 499.44206526 87.26665165 499.44206526 85.25 500.5 C82.79512577 500.67721577 80.39438336 500.77736821 77.9375 500.8125 C76.62136719 500.84988281 75.30523437 500.88726562 73.94921875 500.92578125 C69.66256576 500.43238613 68.13524523 499.66903984 65.25 496.5 C63.35175017 491.94786679 63.01424615 488.09480742 63.0546875 483.18798828 C63.05760803 482.48129501 63.06052856 481.77460175 63.0635376 481.04649353 C63.07111621 479.51929021 63.08331387 477.99210417 63.09967041 476.46496964 C63.12540417 474.03210187 63.13828403 471.59945492 63.14794922 469.16647339 C63.17457597 463.11621759 63.22262844 457.06616882 63.27075195 451.01605225 C63.3106209 445.91006446 63.34174738 440.8041602 63.36187744 435.69805527 C63.37461283 433.32980962 63.39963696 430.96191567 63.42529297 428.59378052 C63.57735252 406.15787294 60.16216624 387.61665659 46.25 369.5 C47.53132813 369.24605469 48.81265625 368.99210937 50.1328125 368.73046875 C54.65037759 367.83317719 59.16619764 366.92742088 63.68115234 366.01708984 C65.24100982 365.70310219 66.80115503 365.3905336 68.36181641 365.08056641 C97.24393724 359.33119809 124.07499315 347.5359886 141.40234375 322.84375 C142.01207031 322.0703125 142.62179687 321.296875 143.25 320.5 C143.91 320.5 144.57 320.5 145.25 320.5 C145.38148438 319.48486328 145.38148438 319.48486328 145.515625 318.44921875 C146.26390307 315.44416588 147.45640866 313.00189203 148.92895508 310.28955078 C163.46056166 283.46553663 167.41417398 244.98340565 159.25 215.5 C157.22351824 209.66819897 154.70625183 204.0690017 152.11669922 198.47021484 C150.97300604 195.8703264 150.08264146 193.2136346 149.25 190.5 C148.59 190.5 147.93 190.5 147.25 190.5 C145.8828125 188.70703125 145.8828125 188.70703125 144.375 186.3125 C142.63035231 183.56478705 141.03738998 181.27103536 138.8125 178.875 C137.25 176.5 137.25 176.5 137.375 173.375 C137.66375 172.09625 137.9525 170.8175 138.25 169.5 C138.59109561 167.68894474 138.92386557 165.87630917 139.25 164.0625 C139.50910156 162.64324219 139.50910156 162.64324219 139.7734375 161.1953125 C142.55053171 145.48879604 141.83874557 128.88474674 136.0546875 113.91796875 C135.25 111.5 135.25 111.5 135.25 107.5 C129.15672179 107.30434428 123.70035186 107.97014904 117.75 109.25 C116.94691406 109.40726562 116.14382813 109.56453125 115.31640625 109.7265625 C110.48039497 110.74549518 106.3707687 112.20090079 102.03222656 114.57592773 C100.25 115.5 100.25 115.5 96.5 116.8125 C90.67672641 118.9029059 85.53080743 122.32713918 80.25 125.5 C78.98168433 126.21283155 77.71134198 126.9220917 76.4375 127.625 C73.39245012 129.25131991 73.39245012 129.25131991 71.73046875 130.95703125 C69.93057068 132.61679127 68.54687384 133.62951498 66.25 134.5 C63.17174647 134.23904915 60.42831947 133.45292581 57.45703125 132.60546875 C52.05568676 131.09222526 46.5301147 130.27388046 41 129.375 C39.47354858 129.11988647 39.47354858 129.11988647 37.91625977 128.85961914 C35.03034671 128.38502586 32.14217721 127.93465946 29.25 127.5 C28.55583984 127.39252441 27.86167969 127.28504883 27.14648438 127.17431641 C18.91262437 126.07392957 10.54372899 126.16782064 2.25 126.125 C1.39894684 126.12043793 0.54789368 126.11587585 -0.32894897 126.11117554 C-12.73837215 126.08755345 -24.80499087 126.86682424 -37.0625 128.8125 C-37.74078857 128.91919006 -38.41907715 129.02588013 -39.11791992 129.13580322 C-46.16411454 130.27076508 -52.95412934 131.64683543 -59.68823242 134.03588867 C-62.09712488 134.57813906 -63.4419791 134.32630602 -65.75 133.5 C-67.2437369 132.50976992 -68.69890771 131.46038765 -70.125 130.375 C-75.34510623 126.60535419 -80.76527219 123.85102296 -86.55078125 121.078125 C-89.38917086 119.67799142 -92.0415806 118.13044153 -94.75 116.5 C-104.89482833 111.64892754 -121.60604343 104.78534781 -132.75 108.5 C-138.04036261 120.36791806 -139.34963292 132.65573981 -139.375 145.5 C-139.3855542 146.78600098 -139.3961084 148.07200195 -139.40698242 149.39697266 C-139.29429601 157.10432615 -138.17391747 163.48690714 -135.40771484 170.6953125 C-134.61341012 174.082459 -135.12489512 175.47793247 -136.75 178.5 C-138.3359375 180.4921875 -138.3359375 180.4921875 -140.125 182.375 C-143.24875231 185.84011081 -145.63978166 189.34399746 -147.75 193.5 C-148.21148437 194.35078125 -148.67296875 195.2015625 -149.1484375 196.078125 C-157.83212186 212.5639014 -159.96896002 227.51280177 -159.9375 246 C-159.93609512 247.06447357 -159.93609512 247.06447357 -159.93466187 248.15045166 C-159.86618064 272.0986409 -157.85511658 304.39488342 -139.75 322.5 C-139.75 323.49 -139.75 324.48 -139.75 325.5 C-139.09 325.5 -138.43 325.5 -137.75 325.5 C-136.3046875 327.22265625 -136.3046875 327.22265625 -134.625 329.5625 C-130.39490177 335.17313238 -125.59005018 339.60663321 -119.75 343.5 C-119.75 344.16 -119.75 344.82 -119.75 345.5 C-119.234375 345.5825 -118.71875 345.665 -118.1875 345.75 C-115.54448284 346.56323605 -113.3932323 347.82405588 -111.01171875 349.20703125 C-93.62160513 359.14852971 -75.61741568 364.55888023 -55.78588867 367.25854492 C-54.78017822 367.39623291 -53.77446777 367.5339209 -52.73828125 367.67578125 C-51.40083862 367.84460815 -51.40083862 367.84460815 -50.03637695 368.0168457 C-47.75 368.5 -47.75 368.5 -44.75 370.5 C-45.13671875 370.92410156 -45.5234375 371.34820312 -45.921875 371.78515625 C-49.44491157 375.75293259 -52.3581273 379.74615301 -54.75 384.5 C-55.100625 385.16644531 -55.45125 385.83289063 -55.8125 386.51953125 C-58.81518587 392.64633515 -59.88398553 398.76559804 -60.75 405.5 C-69.42935527 408.67423114 -77.41508304 411.29894025 -86.75 411.5 C-87.56726563 411.53867187 -88.38453125 411.57734375 -89.2265625 411.6171875 C-101.06122331 411.95532067 -110.45349963 409.30547361 -120.75 403.5 C-120.75 402.84 -120.75 402.18 -120.75 401.5 C-121.45125 401.314375 -122.1525 401.12875 -122.875 400.9375 C-126.79135028 398.97932486 -129.2838864 396.09323769 -131.75 392.5 C-131.75 391.84 -131.75 391.18 -131.75 390.5 C-132.74 390.17 -133.73 389.84 -134.75 389.5 C-136.05384846 387.50519859 -137.27072285 385.45295201 -138.4375 383.375 C-141.37355378 378.32344293 -144.43639886 374.44233076 -149.0859375 370.8671875 C-150.75 369.5 -150.75 369.5 -152.75 366.5 C-153.74 366.17 -154.73 365.84 -155.75 365.5 C-155.75 364.84 -155.75 364.18 -155.75 363.5 C-156.33007812 363.30664062 -156.91015625 363.11328125 -157.5078125 362.9140625 C-158.67957031 362.52347656 -158.67957031 362.52347656 -159.875 362.125 C-160.70386719 361.85300781 -161.53273438 361.58101563 -162.38671875 361.30078125 C-164.17403707 360.69516099 -165.93791712 360.01977819 -167.6875 359.3125 C-173.68761241 357.72063344 -180.16123394 357.51932477 -185.75 360.5 C-184.12825375 366.17611186 -180.2132765 368.69884481 -175.671875 372.01953125 C-164.58071148 380.2991236 -157.88046061 390.01234504 -151.875 402.25 C-149.0322767 407.99408694 -146.09121706 413.66272686 -142.9765625 419.265625 C-142.1737366 420.72809766 -141.41716664 422.21716169 -140.71484375 423.73046875 C-139.46670939 426.01955728 -138.04962025 426.38728052 -135.75 427.5 C-135.255 428.985 -135.255 428.985 -134.75 430.5 C-133.42816021 430.87633556 -132.09073942 431.19783001 -130.75 431.5 C-128.59194217 432.62264025 -126.44760406 433.77179619 -124.3125 434.9375 C-105.9145727 444.34426262 -82.76903703 440.89072213 -62.75 439.5 C-62.67391727 446.95639508 -62.62138623 454.41269 -62.58520508 461.86938477 C-62.57012137 464.40588115 -62.54965169 466.94235148 -62.52368164 469.47875977 C-62.48728119 473.12522822 -62.47026918 476.77135173 -62.45703125 480.41796875 C-62.44154739 481.55147263 -62.42606354 482.6849765 -62.41011047 483.85282898 C-62.40977058 485.44391228 -62.40977058 485.44391228 -62.40942383 487.06713867 C-62.39943108 488.46279305 -62.39943108 488.46279305 -62.38923645 489.88664246 C-62.93587289 493.84645621 -64.73923453 496.49144627 -67.53515625 499.28125 C-73.2076563 502.40262569 -81.05374693 501.24313689 -87.06640625 499.5859375 C-90.35386963 498.3354913 -93.54525226 496.94866894 -96.75 495.5 C-97.82507813 495.06558594 -98.90015625 494.63117188 -100.0078125 494.18359375 C-112.80170024 488.97401765 -125.64168017 482.72646008 -136.94921875 474.75 C-139.76999401 472.79197813 -142.74707127 471.16119462 -145.75 469.5 C-145.75 468.84 -145.75 468.18 -145.75 467.5 C-146.4821875 467.24089844 -147.214375 466.98179687 -147.96875 466.71484375 C-150.84469742 465.45863638 -152.83342193 464.05286653 -155.25 462.0625 C-156.11238281 461.35480469 -156.97476563 460.64710938 -157.86328125 459.91796875 C-162.17743006 456.30435831 -166.488436 452.6879157 -170.76953125 449.03515625 C-172.46484806 447.5931371 -174.16640477 446.15819791 -175.88671875 444.74609375 C-181.40381629 440.19603802 -185.8454602 434.81872182 -190.375 429.3125 C-193.22832126 425.93356692 -196.2699051 422.82698163 -199.5625 419.875 C-200.75 418.5 -200.75 418.5 -200.75 415.5 C-201.34683594 415.24863281 -201.94367188 414.99726563 -202.55859375 414.73828125 C-205.03860838 413.33691826 -206.16103606 411.9907417 -207.8125 409.6875 C-208.54146484 408.68783203 -208.54146484 408.68783203 -209.28515625 407.66796875 C-210.86630141 405.32787391 -212.3036312 402.92544921 -213.75 400.5 C-214.85195145 398.81105261 -215.95622367 397.12361772 -217.0625 395.4375 C-220.22769919 390.49604979 -222.85709639 385.41690428 -225.4140625 380.140625 C-226.75228761 377.35999175 -226.75228761 377.35999175 -228.8125 374.4375 C-233.62265488 367.14468453 -236.61567264 358.62479893 -239.75 350.5 C-240.10046387 349.60788818 -240.10046387 349.60788818 -240.45800781 348.69775391 C-243.84276223 340.06813543 -246.78028553 331.57990329 -248.75 322.5 C-248.98203125 321.48421875 -249.2140625 320.4684375 -249.453125 319.421875 C-250.10124728 316.51221966 -250.70596441 313.59676454 -251.29852295 310.67541504 C-251.60246978 309.21086552 -251.91718356 307.74851392 -252.24200439 306.28845215 C-255.85562007 289.99276013 -256.42542276 274.15014245 -256.3125 257.5 C-256.30923706 256.20238739 -256.30597412 254.90477478 -256.3026123 253.56784058 C-256.21974021 230.99476943 -255.11036246 209.788463 -247.66357422 188.31030273 C-246.85159682 185.81252831 -246.23359808 183.38313106 -245.7109375 180.8125 C-244.75396902 176.16376907 -243.14491154 171.89426314 -241.375 167.5 C-241.08367187 166.7575 -240.79234375 166.015 -240.4921875 165.25 C-237.0205559 156.47956228 -233.0550714 147.9505082 -229 139.4375 C-228.38318359 138.1390918 -228.38318359 138.1390918 -227.75390625 136.81445312 C-226.75360077 134.70915903 -225.75228612 132.60435168 -224.75 130.5 C-224.09 130.5 -223.43 130.5 -222.75 130.5 C-222.5025 129.613125 -222.255 128.72625 -222 127.8125 C-220.67925637 124.31252939 -219.09872889 122.38558121 -216.75 119.5 C-215.93609163 118.07497525 -215.14637147 116.63599177 -214.375 115.1875 C-212.23240462 111.2083943 -209.76956987 107.68218321 -206.984375 104.12890625 C-205.6772484 102.50764049 -205.6772484 102.50764049 -204.75 100.5 C-204.09 100.5 -203.43 100.5 -202.75 100.5 C-202.09 98.85 -201.43 97.2 -200.75 95.5 C-200.09 95.5 -199.43 95.5 -198.75 95.5 C-198.50894531 94.94054687 -198.26789063 94.38109375 -198.01953125 93.8046875 C-196.48474572 91.01846146 -194.59910706 88.95735585 -192.4375 86.625 C-189.80732993 83.76648719 -187.23023615 80.91526701 -184.8125 77.875 C-184.131875 77.09125 -183.45125 76.3075 -182.75 75.5 C-182.09 75.5 -181.43 75.5 -180.75 75.5 C-180.51796875 74.93152344 -180.2859375 74.36304687 -180.046875 73.77734375 C-178.42760452 70.93386577 -176.46122696 69.21420902 -174 67.0625 C-172.66195312 65.89074219 -172.66195312 65.89074219 -171.296875 64.6953125 C-170.45640625 63.97085938 -169.6159375 63.24640625 -168.75 62.5 C-168.11578125 61.94054688 -167.4815625 61.38109375 -166.828125 60.8046875 C-163.01357143 57.5 -163.01357143 57.5 -160.75 57.5 C-160.75 56.84 -160.75 56.18 -160.75 55.5 C-159.10716019 54.46132048 -157.43456287 53.46954923 -155.75 52.5 C-153.90271392 51.12268524 -152.07032669 49.72525354 -150.25 48.3125 C-130.22261644 33.17523831 -106.80559027 21.86118998 -83.25 13.375 C-82.58621338 13.13313965 -81.92242676 12.8912793 -81.23852539 12.64208984 C-71.25368856 9.12030163 -60.86320152 7.01407072 -50.5 4.9375 C-49.49582031 4.72931641 -48.49164063 4.52113281 -47.45703125 4.30664062 C-31.59697694 1.1166297 -16.14145484 0.03036662 0 0 Z " fill="#FFFFFF" transform="translate(255.75,-0.49999999999999994)"/>
</svg>
